<svg width="149" height="80" viewBox="0 0 149 80" fill="none" xmlns="http://www.w3.org/2000/svg">
<path fill-rule="evenodd" clip-rule="evenodd" d="M71.31 57.7802C65.1173 68.6617 53.4156 76 40 76C20.1177 76 4 59.8823 4 40C4 20.1177 20.1177 4 40 4C53.8224 4 65.8253 11.79 71.8579 23.2192H76.3205C69.9761 9.51034 56.0987 0 40 0C17.9086 0 0 17.9086 0 40C0 62.0914 17.9086 80 40 80C55.7045 80 69.2951 70.9497 75.8409 57.7802H71.31Z" fill="url(#paint0_linear_2954_193)"/>
<path d="M66.74 40.88V49H64.5V41.16C64.5 40.0587 64.2947 39.2467 63.884 38.724C63.492 38.2013 62.876 37.94 62.036 37.94C61.42 37.94 60.888 38.0707 60.44 38.332C59.992 38.5747 59.6467 38.9387 59.404 39.424C59.1613 39.9093 59.04 40.488 59.04 41.16V49H56.8V41.16C56.8 40.0587 56.5947 39.2467 56.184 38.724C55.792 38.2013 55.176 37.94 54.336 37.94C53.72 37.94 53.188 38.0707 52.74 38.332C52.292 38.5747 51.9467 38.9387 51.704 39.424C51.4613 39.9093 51.34 40.488 51.34 41.16V49H49.1V36.12H51.34V37.996C51.732 37.268 52.2173 36.7267 52.796 36.372C53.3933 36.0173 54.0933 35.84 54.896 35.84C55.792 35.84 56.5573 36.0547 57.192 36.484C57.8453 36.8947 58.3213 37.4827 58.62 38.248C59.068 37.4453 59.628 36.848 60.3 36.456C60.972 36.0453 61.7373 35.84 62.596 35.84C63.4733 35.84 64.22 36.036 64.836 36.428C65.452 36.82 65.9187 37.3987 66.236 38.164C66.572 38.9107 66.74 39.816 66.74 40.88ZM70.9477 30.8C70.9477 30.3707 71.097 30.0067 71.3957 29.708C71.713 29.4093 72.077 29.26 72.4877 29.26C72.917 29.26 73.281 29.4093 73.5797 29.708C73.8783 30.0067 74.0277 30.3707 74.0277 30.8C74.0277 31.2107 73.8783 31.5747 73.5797 31.892C73.281 32.1907 72.917 32.34 72.4877 32.34C72.077 32.34 71.713 32.1907 71.3957 31.892C71.097 31.5747 70.9477 31.2107 70.9477 30.8ZM71.3677 36.12H73.6077V49H71.3677V36.12ZM80.4611 36.12V49H78.2211V36.12H80.4611ZM84.3531 38.584C84.0544 38.36 83.7838 38.2013 83.5411 38.108C83.2984 37.996 82.9904 37.94 82.6171 37.94C82.0571 37.94 81.6184 38.08 81.3011 38.36C80.9838 38.64 80.7598 39.0227 80.6291 39.508C80.5171 39.9933 80.4611 40.544 80.4611 41.16H79.4531C79.4531 40.1333 79.6304 39.228 79.9851 38.444C80.3584 37.6413 80.8344 37.0067 81.4131 36.54C81.9918 36.0733 82.5798 35.84 83.1771 35.84C83.6438 35.84 84.0731 35.9053 84.4651 36.036C84.8758 36.148 85.2491 36.3813 85.5851 36.736L84.3531 38.584ZM88.8268 45.024C88.8268 45.5093 88.9388 45.9293 89.1628 46.284C89.4054 46.6387 89.7321 46.9093 90.1428 47.096C90.5721 47.264 91.0574 47.348 91.5988 47.348C92.2894 47.348 92.9054 47.208 93.4468 46.928C94.0068 46.648 94.4454 46.256 94.7628 45.752C95.0988 45.2293 95.2668 44.632 95.2668 43.96L95.7148 45.64C95.7148 46.4613 95.4628 47.1427 94.9588 47.684C94.4734 48.2253 93.8668 48.6267 93.1388 48.888C92.4294 49.1493 91.7201 49.28 91.0108 49.28C90.2268 49.28 89.4894 49.1213 88.7988 48.804C88.1268 48.468 87.5854 47.992 87.1748 47.376C86.7641 46.76 86.5588 46.0133 86.5588 45.136C86.5588 43.8853 86.9974 42.8867 87.8748 42.14C88.7708 41.3747 90.0121 40.992 91.5988 40.992C92.5321 40.992 93.3068 41.104 93.9228 41.328C94.5574 41.5333 95.0614 41.776 95.4348 42.056C95.8081 42.3173 96.0601 42.532 96.1908 42.7V44.016C95.5374 43.568 94.8654 43.2507 94.1748 43.064C93.4841 42.8587 92.7468 42.756 91.9628 42.756C91.2348 42.756 90.6374 42.8493 90.1708 43.036C89.7228 43.2227 89.3868 43.484 89.1628 43.82C88.9388 44.156 88.8268 44.5573 88.8268 45.024ZM88.4908 39.088L87.3988 37.436C87.8841 37.0813 88.5468 36.7267 89.3868 36.372C90.2454 36.0173 91.2721 35.84 92.4668 35.84C93.4748 35.84 94.3521 35.9987 95.0988 36.316C95.8641 36.6147 96.4521 37.0533 96.8628 37.632C97.2921 38.2107 97.5068 38.92 97.5068 39.76V49H95.2668V40.068C95.2668 39.62 95.1921 39.256 95.0428 38.976C94.8934 38.6773 94.6788 38.444 94.3988 38.276C94.1374 38.108 93.8294 37.9867 93.4748 37.912C93.1201 37.8373 92.7468 37.8 92.3548 37.8C91.7201 37.8 91.1414 37.8747 90.6188 38.024C90.1148 38.1733 89.6854 38.3507 89.3308 38.556C88.9761 38.7613 88.6961 38.9387 88.4908 39.088ZM102.307 42.56C102.307 43.456 102.494 44.2493 102.867 44.94C103.259 45.6307 103.782 46.1813 104.435 46.592C105.107 46.984 105.863 47.18 106.703 47.18C107.394 47.18 108.038 47.0773 108.635 46.872C109.251 46.648 109.783 46.3587 110.231 46.004C110.679 45.6307 110.997 45.2387 111.183 44.828V47.628C110.735 48.1507 110.091 48.5613 109.251 48.86C108.43 49.14 107.581 49.28 106.703 49.28C105.453 49.28 104.323 48.9907 103.315 48.412C102.307 47.8333 101.505 47.04 100.907 46.032C100.329 45.0053 100.039 43.848 100.039 42.56C100.039 41.2533 100.329 40.096 100.907 39.088C101.505 38.08 102.307 37.2867 103.315 36.708C104.323 36.1293 105.453 35.84 106.703 35.84C107.581 35.84 108.43 35.9893 109.251 36.288C110.091 36.568 110.735 36.9693 111.183 37.492V40.292C110.997 39.8627 110.679 39.4707 110.231 39.116C109.783 38.7613 109.251 38.4813 108.635 38.276C108.038 38.052 107.394 37.94 106.703 37.94C105.863 37.94 105.107 38.136 104.435 38.528C103.782 38.92 103.259 39.4707 102.867 40.18C102.494 40.8707 102.307 41.664 102.307 42.56ZM114.67 27.16H116.91V49H114.67V27.16ZM126.107 49.28C124.913 49.28 123.849 49 122.915 48.44C122.001 47.8613 121.282 47.068 120.759 46.06C120.255 45.052 120.003 43.8853 120.003 42.56C120.003 41.216 120.265 40.04 120.787 39.032C121.329 38.024 122.075 37.24 123.027 36.68C123.998 36.12 125.118 35.84 126.387 35.84C127.657 35.84 128.739 36.1107 129.635 36.652C130.55 37.1747 131.25 37.9307 131.735 38.92C132.221 39.9093 132.463 41.0853 132.463 42.448C132.463 42.5787 132.454 42.7187 132.435 42.868C132.435 42.9987 132.435 43.0827 132.435 43.12H121.431V41.216H130.671L129.775 42.504C129.831 42.4107 129.887 42.2707 129.943 42.084C129.999 41.8787 130.027 41.7107 130.027 41.58C130.027 40.8147 129.869 40.152 129.551 39.592C129.253 39.032 128.833 38.5933 128.291 38.276C127.75 37.9587 127.115 37.8 126.387 37.8C125.529 37.8 124.791 37.9867 124.175 38.36C123.578 38.7147 123.111 39.2373 122.775 39.928C122.458 40.6 122.29 41.4307 122.271 42.42C122.271 43.428 122.43 44.2867 122.747 44.996C123.065 45.7053 123.531 46.2467 124.147 46.62C124.763 46.9933 125.51 47.18 126.387 47.18C127.265 47.18 128.039 46.9933 128.711 46.62C129.383 46.228 129.953 45.64 130.419 44.856L132.239 46.004C131.567 47.0867 130.718 47.908 129.691 48.468C128.683 49.0093 127.489 49.28 126.107 49.28Z" fill="black"/>
<circle cx="65" cy="10" r="5" fill="#4100CB"/>
<ellipse cx="7.5" cy="60" rx="5.5" ry="5" fill="#C549FF"/>
<defs>
<linearGradient id="paint0_linear_2954_193" x1="90.6306" y1="37.5" x2="87.6134" y2="117.566" gradientUnits="userSpaceOnUse">
<stop stop-color="#7000FF"/>
<stop offset="0.842385" stop-color="#CB38FF" stop-opacity="0"/>
<stop offset="0.976637" stop-color="#B47AFF" stop-opacity="0"/>
</linearGradient>
</defs>
</svg>
